SolidWorks IGES file using analytic representation for surfaces         S      1
1H,,1H;,34HLWC_Sketch - Kopi-AT-Laptop.SLDPRT,73HC:\Users\atbys\Desktop\G      1
DMS4 Local\DMS4\05_OPTI\IGS\LWC_Sketch_FixedV5.IGS,15HSolidWorks 2026,  G      2
15HSolidWorks 2026,32,308,15,308,15,34HLWC_Sketch - Kopi-AT-Laptop.SLDPRG      3
T,1.,2,2HMM,50,0.125,13H260423.145819,1E-08,499990.,5Hatbys,,11,0,13H260G      4
423.145819;                                                             G      5
     110       1       0       0       0                        00000000D      1
     110       0       0       1       0                               0D      2
     110       2       0       0       0                        00000000D      3
     110       0       0       1       0                               0D      4
     110       3       0       0       0                        00000000D      5
     110       0       0       1       0                               0D      6
     110       4       0       0       0                        00000000D      7
     110       0       0       1       0                               0D      8
     110       5       0       0       0                        00000000D      9
     110       0       0       1       0                               0D     10
     110       6       0       0       0                        00000000D     11
     110       0       0       2       0                               0D     12
     110       8       0       0       0                        00000000D     13
     110       0       0       1       0                               0D     14
     110       9       0       0       0                        00000000D     15
     110       0       0       1       0                               0D     16
     110      10       0       0       0                        00000000D     17
     110       0       0       1       0                               0D     18
     110      11       0       0       0                        00000000D     19
     110       0       0       1       0                               0D     20
     110      12       0       0       0                        00000000D     21
     110       0       0       1       0                               0D     22
     110      13       0       0       0                        00000000D     23
     110       0       0       1       0                               0D     24
     110      14       0       0       0                        00000000D     25
     110       0       0       1       0                               0D     26
     110      15       0       0       0                        00000000D     27
     110       0       0       1       0                               0D     28
     110      16       0       0       0                        00000000D     29
     110       0       0       1       0                               0D     30
     110      17       0       0       0                        00000000D     31
     110       0       0       1       0                               0D     32
     110      18       0       0       0                        00000000D     33
     110       0       0       1       0                               0D     34
     110      19       0       0       0                        00000000D     35
     110       0       0       1       0                               0D     36
     110      20       0       0       0                        00000000D     37
     110       0       0       1       0                               0D     38
     110      21       0       0       0                        00000000D     39
     110       0       0       1       0                               0D     40
     110      22       0       0       0                        00000000D     41
     110       0       0       1       0                               0D     42
     110      23       0       0       0                        00000000D     43
     110       0       0       1       0                               0D     44
     110      24       0       0       0                        00000000D     45
     110       0       0       1       0                               0D     46
     110      25       0       0       0                        00000000D     47
     110       0       0       1       0                               0D     48
     110      26       0       0       0                        00000000D     49
     110       0       0       1       0                               0D     50
     110      27       0       0       0                        00000000D     51
     110       0       0       1       0                               0D     52
     110      28       0       0       0                        00000000D     53
     110       0       0       1       0                               0D     54
     110      29       0       0       0                        00000000D     55
     110       0       0       1       0                               0D     56
     110      30       0       0       0                        00000000D     57
     110       0       0       1       0                               0D     58
     110      31       0       0       0                        00000000D     59
     110       0       0       1       0                               0D     60
     110      32       0       0       0                        00000000D     61
     110       0       0       1       0                               0D     62
     110      33       0       0       0                        00000000D     63
     110       0       0       1       0                               0D     64
     110      34       0       0       0                        00000000D     65
     110       0       0       1       0                               0D     66
     110      35       0       0       0                        00000000D     67
     110       0       0       1       0                               0D     68
     110      36       0       0       0                        00000000D     69
     110       0       0       1       0                               0D     70
     110      37       0       0       0                        00000000D     71
     110       0       0       1       0                               0D     72
     110      38       0       0       0                        00000000D     73
     110       0       0       1       0                               0D     74
     110      39       0       0       0                        00000000D     75
     110       0       0       1       0                               0D     76
     110      40       0       0       0                        00000000D     77
     110       0       0       1       0                               0D     78
     110      41       0       0       0                        00000000D     79
     110       0       0       1       0                               0D     80
     110      42       0       0       0                        00000000D     81
     110       0       0       1       0                               0D     82
     110      43       0       0       0                        00000000D     83
     110       0       0       1       0                               0D     84
     110      44       0       0       0                        00000000D     85
     110       0       0       1       0                               0D     86
     110      45       0       0       0                        00000000D     87
     110       0       0       1       0                               0D     88
     110      46       0       0       0                        00000000D     89
     110       0       0       1       0                               0D     90
     110      47       0       0       0                        00000000D     91
     110       0       0       1       0                               0D     92
     110      48       0       0       0                        00000000D     93
     110       0       0       1       0                               0D     94
     110      49       0       0       0                        00000000D     95
     110       0       0       1       0                               0D     96
     110      50       0       0       0                        00000000D     97
     110       0       0       1       0                               0D     98
     110      51       0       0       0                        00000000D     99
     110       0       0       1       0                               0D    100
     110      52       0       0       0                        00000000D    101
     110       0       0       1       0                               0D    102
     110      53       0       0       0                        00000000D    103
     110       0       0       1       0                               0D    104
     110      54       0       0       0                        00000000D    105
     110       0       0       1       0                               0D    106
     110      55       0       0       0                        00000000D    107
     110       0       0       1       0                               0D    108
     110      56       0       0       0                        00000000D    109
     110       0       0       1       0                               0D    110
     110      57       0       0       0                        00000000D    111
     110       0       0       1       0                               0D    112
     110      58       0       0       0                        00000000D    113
     110       0       0       1       0                               0D    114
     110      59       0       0       0                        00000000D    115
     110       0       0       1       0                               0D    116
     110      60       0       0       0                        00000000D    117
     110       0       0       1       0                               0D    118
     110      61       0       0       0                        00000000D    119
     110       0       0       1       0                               0D    120
     110      62       0       0       0                        00000000D    121
     110       0       0       1       0                               0D    122
     110      63       0       0       0                        00000000D    123
     110       0       0       1       0                               0D    124
     110      64       0       0       0                        00000000D    125
     110       0       0       1       0                               0D    126
     110      65       0       0       0                        00000000D    127
     110       0       0       1       0                               0D    128
     110      66       0       0       0                        00000000D    129
     110       0       0       1       0                               0D    130
     110      67       0       0       0                        00000000D    131
     110       0       0       1       0                               0D    132
     110      68       0       0       0                        00000000D    133
     110       0       0       1       0                               0D    134
     110      69       0       0       0                        00000000D    135
     110       0       0       1       0                               0D    136
     110      70       0       0       0                        00000000D    137
     110       0       0       1       0                               0D    138
     110      71       0       0       0                        00000000D    139
     110       0       0       1       0                               0D    140
     110      72       0       0       0                        00000000D    141
     110       0       0       1       0                               0D    142
     110      73       0       0       0                        00000000D    143
     110       0       0       1       0                               0D    144
     110      74       0       0       0                        00000000D    145
     110       0       0       1       0                               0D    146
     110      75       0       0       0                        00000000D    147
     110       0       0       1       0                               0D    148
     110      76       0       0       0                        00000000D    149
     110       0       0       1       0                               0D    150
     110      77       0       0       0                        00000000D    151
     110       0       0       1       0                               0D    152
     110      78       0       0       0                        00000000D    153
     110       0       0       1       0                               0D    154
     110      79       0       0       0                        00000000D    155
     110       0       0       1       0                               0D    156
     110      80       0       0       0                        00000000D    157
     110       0       0       1       0                               0D    158
     110      81       0       0       0                        00000000D    159
     110       0       0       1       0                               0D    160
     110      82       0       0       0                        00000000D    161
     110       0       0       1       0                               0D    162
     110      83       0       0       0                        00000000D    163
     110       0       0       1       0                               0D    164
     110      84       0       0       0                        00000000D    165
     110       0       0       1       0                               0D    166
     110      85       0       0       0                        00000000D    167
     110       0       0       1       0                               0D    168
     110      86       0       0       0                        00000000D    169
     110       0       0       1       0                               0D    170
     110      87       0       0       0                        00000000D    171
     110       0       0       2       0                               0D    172
     110      89       0       0       0                        00000000D    173
     110       0       0       2       0                               0D    174
     110      91       0       0       0                        00000000D    175
     110       0       0       2       0                               0D    176
     110      93       0       0       0                        00000000D    177
     110       0       0       2       0                               0D    178
     110      95       0       0       0                        00000000D    179
     110       0       0       2       0                               0D    180
     110      97       0       0       0                        00000000D    181
     110       0       0       2       0                               0D    182
     110      99       0       0       0                        00000000D    183
     110       0       0       1       0                               0D    184
     110     100       0       0       0                        00000000D    185
     110       0       0       1       0                               0D    186
     110     101       0       0       0                        00000000D    187
     110       0       0       2       0                               0D    188
     110     103       0       0       0                        00000000D    189
     110       0       0       1       0                               0D    190
     110     104       0       0       0                        00000000D    191
     110       0       0       1       0                               0D    192
     110     105       0       0       0                        00000000D    193
     110       0       0       1       0                               0D    194
     110     106       0       0       0                        00000000D    195
     110       0       0       1       0                               0D    196
     110     107       0       0       0                        00000000D    197
     110       0       0       1       0                               0D    198
     110     108       0       0       0                        00000000D    199
     110       0       0       1       0                               0D    200
     110     109       0       0       0                        00000000D    201
     110       0       0       1       0                               0D    202
     110     110       0       0       0                        00000000D    203
     110       0       0       1       0                               0D    204
     110     111       0       0       0                        00000000D    205
     110       0       0       1       0                               0D    206
     110     112       0       0       0                        00000000D    207
     110       0       0       2       0                               0D    208
     110     114       0       0       0                        00000000D    209
     110       0       0       2       0                               0D    210
     110     116       0       0       0                        00000000D    211
     110       0       0       1       0                               0D    212
     110     117       0       0       0                        00000000D    213
     110       0       0       1       0                               0D    214
     110     118       0       0       0                        00000000D    215
     110       0       0       1       0                               0D    216
     110     119       0       0       0                        00000000D    217
     110       0       0       1       0                               0D    218
     110     120       0       0       0                        00000000D    219
     110       0       0       1       0                               0D    220
     110     121       0       0       0                        00000000D    221
     110       0       0       1       0                               0D    222
     110     122       0       0       0                        00000000D    223
     110       0       0       1       0                               0D    224
     110     123       0       0       0                        00000000D    225
     110       0       0       1       0                               0D    226
     110     124       0       0       0                        00000000D    227
     110       0       0       1       0                               0D    228
     110     125       0       0       0                        00000000D    229
     110       0       0       1       0                               0D    230
     110     126       0       0       0                        00000000D    231
     110       0       0       1       0                               0D    232
     110     127       0       0       0                        00000000D    233
     110       0       0       1       0                               0D    234
     110     128       0       0       0                        00000000D    235
     110       0       0       1       0                               0D    236
     110     129       0       0       0                        00000000D    237
     110       0       0       1       0                               0D    238
     110     130       0       0       0                        00000000D    239
     110       0       0       1       0                               0D    240
     110     131       0       0       0                        00000000D    241
     110       0       0       1       0                               0D    242
     110     132       0       0       0                        00000000D    243
     110       0       0       1       0                               0D    244
     110     133       0       0       0                        00000000D    245
     110       0       0       1       0                               0D    246
     110     134       0       0       0                        00000000D    247
     110       0       0       1       0                               0D    248
     110     135       0       0       0                        00000000D    249
     110       0       0       1       0                               0D    250
     110     136       0       0       0                        00000000D    251
     110       0       0       1       0                               0D    252
     110     137       0       0       0                        00000000D    253
     110       0       0       1       0                               0D    254
     110     138       0       0       0                        00000000D    255
     110       0       0       1       0                               0D    256
     110     139       0       0       0                        00000000D    257
     110       0       0       1       0                               0D    258
     110     140       0       0       0                        00000000D    259
     110       0       0       1       0                               0D    260
     110     141       0       0       0                        00000000D    261
     110       0       0       1       0                               0D    262
     110     142       0       0       0                        00000000D    263
     110       0       0       1       0                               0D    264
     110     143       0       0       0                        00000000D    265
     110       0       0       1       0                               0D    266
     110     144       0       0       0                        00000000D    267
     110       0       0       1       0                               0D    268
     110     145       0       0       0                        00000000D    269
     110       0       0       1       0                               0D    270
     110     146       0       0       0                        00000000D    271
     110       0       0       1       0                               0D    272
     110     147       0       0       0                        00000000D    273
     110       0       0       1       0                               0D    274
     110     148       0       0       0                        00000000D    275
     110       0       0       1       0                               0D    276
     110     149       0       0       0                        00000000D    277
     110       0       0       1       0                               0D    278
     110     150       0       0       0                        00000000D    279
     110       0       0       1       0                               0D    280
     110     151       0       0       0                        00000000D    281
     110       0       0       1       0                               0D    282
     110     152       0       0       0                        00000000D    283
     110       0       0       1       0                               0D    284
     110     153       0       0       0                        00000000D    285
     110       0       0       1       0                               0D    286
     110     154       0       0       0                        00000000D    287
     110       0       0       1       0                               0D    288
     110     155       0       0       0                        00000000D    289
     110       0       0       1       0                               0D    290
     110     156       0       0       0                        00000000D    291
     110       0       0       1       0                               0D    292
     110     157       0       0       0                        00000000D    293
     110       0       0       1       0                               0D    294
     110     158       0       0       0                        00000000D    295
     110       0       0       1       0                               0D    296
     110     159       0       0       0                        00000000D    297
     110       0       0       1       0                               0D    298
     110     160       0       0       0                        00000000D    299
     110       0       0       1       0                               0D    300
     110     161       0       0       0                        00000000D    301
     110       0       0       1       0                               0D    302
     110     162       0       0       0                        00000000D    303
     110       0       0       1       0                               0D    304
     110     163       0       0       0                        00000000D    305
     110       0       0       1       0                               0D    306
     110     164       0       0       0                        00000000D    307
     110       0       0       1       0                               0D    308
     110     165       0       0       0                        00000000D    309
     110       0       0       1       0                               0D    310
     110     166       0       0       0                        00000000D    311
     110       0       0       1       0                               0D    312
     110     167       0       0       0                        00000000D    313
     110       0       0       1       0                               0D    314
     110     168       0       0       0                        00000000D    315
     110       0       0       1       0                               0D    316
     110     169       0       0       0                        00000000D    317
     110       0       0       1       0                               0D    318
     110     170       0       0       0                        00000000D    319
     110       0       0       1       0                               0D    320
     110     171       0       0       0                        00000000D    321
     110       0       0       1       0                               0D    322
     110     172       0       0       0                        00000000D    323
     110       0       0       1       0                               0D    324
     110     173       0       0       0                        00000000D    325
     110       0       0       1       0                               0D    326
     110     174       0       0       0                        00000000D    327
     110       0       0       1       0                               0D    328
     110     175       0       0       0                        00000000D    329
     110       0       0       1       0                               0D    330
     110     176       0       0       0                        00000000D    331
     110       0       0       1       0                               0D    332
     110     177       0       0       0                        00000000D    333
     110       0       0       1       0                               0D    334
     110     178       0       0       0                        00000000D    335
     110       0       0       1       0                               0D    336
     110     179       0       0       0                        00000000D    337
     110       0       0       1       0                               0D    338
     110     180       0       0       0                        00000000D    339
     110       0       0       1       0                               0D    340
     110     181       0       0       0                        00000000D    341
     110       0       0       1       0                               0D    342
     110     182       0       0       0                        00000000D    343
     110       0       0       1       0                               0D    344
     110     183       0       0       0                        00000000D    345
     110       0       0       1       0                               0D    346
     110     184       0       0       0                        00000000D    347
     110       0       0       1       0                               0D    348
     110     185       0       0       0                        00000000D    349
     110       0       0       1       0                               0D    350
     110     186       0       0       0                        00000000D    351
     110       0       0       1       0                               0D    352
     110     187       0       0       0                        00000000D    353
     110       0       0       1       0                               0D    354
     110     188       0       0       0                        00000000D    355
     110       0       0       1       0                               0D    356
     110     189       0       0       0                        00000000D    357
     110       0       0       1       0                               0D    358
     110     190       0       0       0                        00000000D    359
     110       0       0       1       0                               0D    360
     110     191       0       0       0                        00000000D    361
     110       0       0       1       0                               0D    362
     110     192       0       0       0                        00000000D    363
     110       0       0       1       0                               0D    364
     110     193       0       0       0                        00000000D    365
     110       0       0       1       0                               0D    366
     110     194       0       0       0                        00000000D    367
     110       0       0       1       0                               0D    368
     110     195       0       0       0                        00000000D    369
     110       0       0       1       0                               0D    370
     110     196       0       0       0                        00000000D    371
     110       0       0       1       0                               0D    372
     110     197       0       0       0                        00000000D    373
     110       0       0       1       0                               0D    374
     110     198       0       0       0                        00000000D    375
     110       0       0       1       0                               0D    376
     110     199       0       0       0                        00000000D    377
     110       0       0       1       0                               0D    378
     110     200       0       0       0                        00000000D    379
     110       0       0       1       0                               0D    380
     110     201       0       0       0                        00000000D    381
     110       0       0       1       0                               0D    382
     110     202       0       0       0                        00000000D    383
     110       0       0       1       0                               0D    384
     110     203       0       0       0                        00000000D    385
     110       0       0       1       0                               0D    386
     110     204       0       0       0                        00000000D    387
     110       0       0       1       0                               0D    388
     110     205       0       0       0                        00000000D    389
     110       0       0       1       0                               0D    390
     110     206       0       0       0                        00000000D    391
     110       0       0       1       0                               0D    392
     110     207       0       0       0                        00000000D    393
     110       0       0       1       0                               0D    394
     110     208       0       0       0                        00000000D    395
     110       0       0       1       0                               0D    396
     110     209       0       0       0                        00000000D    397
     110       0       0       1       0                               0D    398
     110     210       0       0       0                        00000000D    399
     110       0       0       1       0                               0D    400
     110     211       0       0       0                        00000000D    401
     110       0       0       1       0                               0D    402
     110     212       0       0       0                        00000000D    403
     110       0       0       1       0                               0D    404
     110     213       0       0       0                        00000000D    405
     110       0       0       1       0                               0D    406
     110     214       0       0       0                        00000000D    407
     110       0       0       1       0                               0D    408
     110     215       0       0       0                        00000000D    409
     110       0       0       1       0                               0D    410
     110     216       0       0       0                        00000000D    411
     110       0       0       1       0                               0D    412
     110     217       0       0       0                        00000000D    413
     110       0       0       1       0                               0D    414
     116     218       0       0       0                        00000000D    415
     116       0       0       1       0                               0D    416
     402     219       0       0       0                        00000000D    417
     402       0       0      13      15                3DSKETCH       1D    418
     314     232       0       0       0                        00000200D    419
     314       0       8       1       0                               0D    420
110,0.,4282.,0.,0.,4477.9,0.;                                          1P      1
110,202.072594216,85.,0.,-101.036297108,85.,-175.;                     3P      2
110,-101.036297108,85.,-175.,-101.036297108,85.,175.;                  5P      3
110,-101.036297108,85.,175.,202.072594216,85.,0.;                      7P      4
110,0.,4477.9,0.,2800.,4477.9,0.;                                      9P      5
110,-101.036297108,4078.27679995,175.,-101.036297108,4050.,           11P      6
175.;                                                                 11P      7
110,-101.036297108,100.,-175.,-101.036297108,390.,175.;               13P      8
110,-101.036297108,0.,175.,-101.036297108,85.,175.;                   15P      9
110,-101.036297108,100.,175.,202.072594216,390.,0.;                   17P     10
110,202.072594216,100.,0.,-101.036297108,390.,-175.;                  19P     11
110,-101.036297108,405.,-175.,202.072594216,405.,0.;                  21P     12
110,202.072594216,405.,0.,-101.036297108,405.,175.;                   23P     13
110,-101.036297108,405.,175.,-101.036297108,405.,-175.;               25P     14
110,-101.036297108,420.,-175.,202.072594216,710.,0.;                  27P     15
110,202.072594216,420.,0.,-101.036297108,710.,175.;                   29P     16
110,-101.036297108,420.,175.,-101.036297108,710.,-175.;               31P     17
110,-101.036297108,725.,175.,-101.036297108,725.,-175.;               33P     18
110,202.072594216,725.,0.,-101.036297108,725.,-175.;                  35P     19
110,202.072594216,725.,0.,-101.036297108,725.,175.;                   37P     20
110,-101.036297108,1535.,175.,-101.036297108,1535.,-175.;             39P     21
110,202.072594216,1215.,0.,-101.036297108,1215.,175.;                 41P     22
110,-101.036297108,910.,-175.,-101.036297108,1200.,175.;              43P     23
110,-101.036297108,895.,-175.,-101.036297108,895.,175.;               45P     24
110,-101.036297108,85.,175.,-101.036297108,100.,175.;                 47P     25
110,202.072594216,910.,0.,-101.036297108,1200.,-175.;                 49P     26
110,-101.036297108,1230.,-175.,202.072594216,1520.,0.;                51P     27
110,202.072594216,1535.,0.,-101.036297108,1535.,175.;                 53P     28
110,-101.036297108,1215.,-175.,202.072594216,1215.,0.;                55P     29
110,202.072594216,1535.,0.,-101.036297108,1535.,-175.;                57P     30
110,-101.036297108,1215.,175.,-101.036297108,1215.,-175.;             59P     31
110,202.072594216,1230.,0.,-101.036297108,1520.,175.;                 61P     32
110,202.072594216,895.,0.,-101.036297108,895.,-175.;                  63P     33
110,-101.036297108,895.,175.,202.072594216,895.,0.;                   65P     34
110,-101.036297108,910.,175.,202.072594216,1200.,0.;                  67P     35
110,-101.036297108,1230.,175.,-101.036297108,1520.,-175.;             69P     36
110,-101.036297108,2040.,-175.,202.072594216,2330.,0.;                71P     37
110,202.072594216,2025.,0.,-101.036297108,2025.,175.;                 73P     38
110,-101.036297108,390.,175.,-101.036297108,100.,175.;                75P     39
110,-101.036297108,2025.,175.,-101.036297108,2025.,-175.;             77P     40
110,202.072594216,2345.,0.,-101.036297108,2345.,-175.;                79P     41
110,-101.036297108,1720.,175.,202.072594216,2010.,0.;                 81P     42
110,-101.036297108,2025.,-175.,202.072594216,2025.,0.;                83P     43
110,-101.036297108,1705.,-175.,-101.036297108,1705.,175.;             85P     44
110,-101.036297108,1705.,175.,202.072594216,1705.,0.;                 87P     45
110,-101.036297108,2345.,175.,-101.036297108,2345.,-175.;             89P     46
110,202.072594216,2345.,0.,-101.036297108,2345.,175.;                 91P     47
110,202.072594216,2040.,0.,-101.036297108,2330.,175.;                 93P     48
110,-101.036297108,1720.,-175.,-101.036297108,2010.,175.;             95P     49
110,202.072594216,1720.,0.,-101.036297108,2010.,-175.;                97P     50
110,-101.036297108,2040.,175.,-101.036297108,2330.,-175.;             99P     51
110,202.072594216,1705.,0.,-101.036297108,1705.,-175.;               101P     52
110,202.072594216,2515.,0.,-101.036297108,2515.,-175.;               103P     53
110,-101.036297108,2530.,-175.,-101.036297108,2820.,175.;            105P     54
110,-101.036297108,3155.,175.,-101.036297108,3155.,-175.;            107P     55
110,-101.036297108,2850.,175.,-101.036297108,3140.,-175.;            109P     56
110,-101.036297108,2835.,175.,-101.036297108,2835.,-175.;            111P     57
110,202.072594216,2530.,0.,-101.036297108,2820.,-175.;               113P     58
110,-101.036297108,390.,175.,-101.036297108,405.,175.;               115P     59
110,202.072594216,3155.,0.,-101.036297108,3155.,175.;                117P     60
110,-101.036297108,2835.,-175.,202.072594216,2835.,0.;               119P     61
110,-101.036297108,2530.,175.,202.072594216,2820.,0.;                121P     62
110,202.072594216,2850.,0.,-101.036297108,3140.,175.;                123P     63
110,-101.036297108,2850.,-175.,202.072594216,3140.,0.;               125P     64
110,202.072594216,3155.,0.,-101.036297108,3155.,-175.;               127P     65
110,-101.036297108,2515.,-175.,-101.036297108,2515.,175.;            129P     66
110,-101.036297108,2515.,175.,202.072594216,2515.,0.;                131P     67
110,202.072594216,2835.,0.,-101.036297108,2835.,175.;                133P     68
110,-101.036297108,3325.,-175.,-101.036297108,3325.,175.;            135P     69
110,-101.036297108,3340.,-175.,-101.036297108,3630.,175.;            137P     70
110,202.072594216,3340.,0.,-101.036297108,3630.,-175.;               139P     71
110,-101.036297108,3660.,-175.,202.072594216,3950.,0.;               141P     72
110,202.072594216,3645.,0.,-101.036297108,3645.,175.;                143P     73
110,202.072594216,3660.,0.,-101.036297108,3950.,175.;                145P     74
110,-101.036297108,405.,175.,-101.036297108,420.,175.;               147P     75
110,202.072594216,3965.,0.,-101.036297108,3965.,-175.;               149P     76
110,202.072594216,3965.,0.,-101.036297108,3965.,175.;                151P     77
110,-101.036297108,3340.,175.,202.072594216,3630.,0.;                153P     78
110,-101.036297108,3965.,175.,-101.036297108,3965.,-175.;            155P     79
110,-101.036297108,3645.,175.,-101.036297108,3645.,-175.;            157P     80
110,-101.036297108,3645.,-175.,202.072594216,3645.,0.;               159P     81
110,-101.036297108,3660.,175.,-101.036297108,3950.,-175.;            161P     82
110,202.072594216,3325.,0.,-101.036297108,3325.,-175.;               163P     83
110,-101.036297108,3325.,175.,202.072594216,3325.,0.;                165P     84
110,202.072594216,4050.,0.,202.072594216,4078.27679995,0.;           167P     85
110,202.072594216,4078.27679995,0.,119.763078585,4282.,0.;           169P     86
110,-101.036297108,4078.27679995,175.,-59.881539292,4282.,           171P     87
103.71786849;                                                        171P     88
110,-101.036297108,4050.,-175.,-101.036297108,4078.27679995,         173P     89
-175.;                                                               173P     90
110,-101.036297108,4078.27679995,-175.,-59.881539293,4282.,          175P     91
-103.71786849;                                                       175P     92
110,-101.036297108,4078.27679995,-175.,-101.036297108,               177P     93
4078.27679995,175.;                                                  177P     94
110,202.072594216,4078.27679995,0.,-101.036297108,                   179P     95
4078.27679995,-175.;                                                 179P     96
110,-101.036297108,4078.27679995,175.,202.072594216,                 181P     97
4078.27679995,0.;                                                    181P     98
110,119.763078585,4282.,0.,-59.881539293,4282.,-103.71786849;        183P     99
110,-59.881539292,4282.,103.71786849,119.763078585,4282.,0.;         185P    100
110,-59.881539293,4282.,-103.71786849,-59.881539292,4282.,           187P    101
103.71786849;                                                        187P    102
110,202.072594216,4078.27679995,0.,0.,4078.27679995,0.;              189P    103
110,0.,4078.27679995,0.,-101.036297108,4078.27679995,-175.;          191P    104
110,-101.036297108,4078.27679995,175.,0.,4078.27679995,0.;           193P    105
110,119.763078585,4282.,0.,0.,4282.,0.;                              195P    106
110,0.,4282.,0.,-59.881539293,4282.,-103.71786849;                   197P    107
110,0.,4282.,0.,-59.881539292,4282.,103.71786849;                    199P    108
110,0.,4078.27679995,0.,0.,4282.,0.;                                 201P    109
110,-101.036297108,4050.,175.,-101.036297108,3965.,175.;             203P    110
110,-101.036297108,4078.27679995,175.,119.763078585,4282.,0.;        205P    111
110,202.072594216,4078.27679995,0.,-59.881539293,4282.,              207P    112
-103.71786849;                                                       207P    113
110,-101.036297108,4078.27679995,-175.,-59.881539292,4282.,          209P    114
103.71786849;                                                        209P    115
110,-101.036297108,420.,175.,-101.036297108,710.,175.;               211P    116
110,-101.036297108,710.,175.,-101.036297108,725.,175.;               213P    117
110,-101.036297108,725.,175.,-101.036297108,895.,175.;               215P    118
110,-101.036297108,895.,175.,-101.036297108,910.,175.;               217P    119
110,-101.036297108,910.,175.,-101.036297108,1200.,175.;              219P    120
110,-101.036297108,1200.,175.,-101.036297108,1215.,175.;             221P    121
110,-101.036297108,1230.,175.,-101.036297108,1215.,175.;             223P    122
110,-101.036297108,1230.,175.,-101.036297108,1520.,175.;             225P    123
110,-101.036297108,1535.,175.,-101.036297108,1520.,175.;             227P    124
110,-101.036297108,1535.,175.,-101.036297108,1705.,175.;             229P    125
110,-101.036297108,1720.,175.,-101.036297108,1705.,175.;             231P    126
110,-101.036297108,1720.,175.,-101.036297108,2010.,175.;             233P    127
110,-101.036297108,2010.,175.,-101.036297108,2025.,175.;             235P    128
110,-101.036297108,2025.,175.,-101.036297108,2040.,175.;             237P    129
110,-101.036297108,2330.,175.,-101.036297108,2040.,175.;             239P    130
110,-101.036297108,2330.,175.,-101.036297108,2345.,175.;             241P    131
110,-101.036297108,2345.,175.,-101.036297108,2515.,175.;             243P    132
110,-101.036297108,2515.,175.,-101.036297108,2530.,175.;             245P    133
110,-101.036297108,2530.,175.,-101.036297108,2820.,175.;             247P    134
110,-101.036297108,2820.,175.,-101.036297108,2835.,175.;             249P    135
110,-101.036297108,2835.,175.,-101.036297108,2850.,175.;             251P    136
110,-101.036297108,2850.,175.,-101.036297108,3140.,175.;             253P    137
110,-101.036297108,3140.,175.,-101.036297108,3155.,175.;             255P    138
110,-101.036297108,3325.,175.,-101.036297108,3155.,175.;             257P    139
110,-101.036297108,3340.,175.,-101.036297108,3325.,175.;             259P    140
110,-101.036297108,3340.,175.,-101.036297108,3630.,175.;             261P    141
110,-101.036297108,3630.,175.,-101.036297108,3645.,175.;             263P    142
110,-101.036297108,3645.,175.,-101.036297108,3660.,175.;             265P    143
110,-101.036297108,3660.,175.,-101.036297108,3950.,175.;             267P    144
110,-101.036297108,3950.,175.,-101.036297108,3965.,175.;             269P    145
110,202.072594216,4050.,0.,202.072594216,3965.,0.;                   271P    146
110,202.072594216,3965.,0.,202.072594216,3950.,0.;                   273P    147
110,202.072594216,3950.,0.,202.072594216,3660.,0.;                   275P    148
110,202.072594216,3660.,0.,202.072594216,3645.,0.;                   277P    149
110,202.072594216,3630.,0.,202.072594216,3645.,0.;                   279P    150
110,-101.036297108,3965.,-175.,-101.036297108,3950.,-175.;           281P    151
110,-101.036297108,3950.,-175.,-101.036297108,3660.,-175.;           283P    152
110,-101.036297108,3645.,-175.,-101.036297108,3660.,-175.;           285P    153
110,-101.036297108,3630.,-175.,-101.036297108,3645.,-175.;           287P    154
110,-101.036297108,3630.,-175.,-101.036297108,3340.,-175.;           289P    155
110,-101.036297108,3340.,-175.,-101.036297108,3325.,-175.;           291P    156
110,-101.036297108,3325.,-175.,-101.036297108,3155.,-175.;           293P    157
110,-101.036297108,3155.,-175.,-101.036297108,3140.,-175.;           295P    158
110,-101.036297108,3140.,-175.,-101.036297108,2850.,-175.;           297P    159
110,-101.036297108,2835.,-175.,-101.036297108,2850.,-175.;           299P    160
110,-101.036297108,2820.,-175.,-101.036297108,2835.,-175.;           301P    161
110,-101.036297108,2820.,-175.,-101.036297108,2530.,-175.;           303P    162
110,-101.036297108,2530.,-175.,-101.036297108,2515.,-175.;           305P    163
110,-101.036297108,2515.,-175.,-101.036297108,2345.,-175.;           307P    164
110,-101.036297108,2345.,-175.,-101.036297108,2330.,-175.;           309P    165
110,-101.036297108,2330.,-175.,-101.036297108,2040.,-175.;           311P    166
110,-101.036297108,2040.,-175.,-101.036297108,2025.,-175.;           313P    167
110,-101.036297108,2025.,-175.,-101.036297108,2010.,-175.;           315P    168
110,202.072594216,2040.,0.,202.072594216,2025.,0.;                   317P    169
110,202.072594216,2025.,0.,202.072594216,2010.,0.;                   319P    170
110,202.072594216,2010.,0.,202.072594216,1720.,0.;                   321P    171
110,202.072594216,1720.,0.,202.072594216,1705.,0.;                   323P    172
110,-101.036297108,2010.,-175.,-101.036297108,1720.,-175.;           325P    173
110,-101.036297108,1720.,-175.,-101.036297108,1705.,-175.;           327P    174
110,-101.036297108,1705.,-175.,-101.036297108,1535.,-175.;           329P    175
110,-101.036297108,1535.,-175.,-101.036297108,1520.,-175.;           331P    176
110,202.072594216,1520.,0.,202.072594216,1535.,0.;                   333P    177
110,202.072594216,1535.,0.,202.072594216,1705.,0.;                   335P    178
110,202.072594216,1520.,0.,202.072594216,1230.,0.;                   337P    179
110,202.072594216,1230.,0.,202.072594216,1215.,0.;                   339P    180
110,202.072594216,1215.,0.,202.072594216,1200.,0.;                   341P    181
110,-101.036297108,1200.,-175.,-101.036297108,1215.,-175.;           343P    182
110,-101.036297108,1215.,-175.,-101.036297108,1230.,-175.;           345P    183
110,-101.036297108,1230.,-175.,-101.036297108,1520.,-175.;           347P    184
110,-101.036297108,1200.,-175.,-101.036297108,910.,-175.;            349P    185
110,-101.036297108,910.,-175.,-101.036297108,895.,-175.;             351P    186
110,202.072594216,1200.,0.,202.072594216,910.,0.;                    353P    187
110,202.072594216,910.,0.,202.072594216,895.,0.;                     355P    188
110,202.072594216,895.,0.,202.072594216,725.,0.;                     357P    189
110,202.072594216,725.,0.,202.072594216,710.,0.;                     359P    190
110,-101.036297108,895.,-175.,-101.036297108,725.,-175.;             361P    191
110,-101.036297108,725.,-175.,-101.036297108,710.,-175.;             363P    192
110,-101.036297108,710.,-175.,-101.036297108,420.,-175.;             365P    193
110,-101.036297108,420.,-175.,-101.036297108,405.,-175.;             367P    194
110,-101.036297108,405.,-175.,-101.036297108,390.,-175.;             369P    195
110,202.072594216,710.,0.,202.072594216,420.,0.;                     371P    196
110,202.072594216,420.,0.,202.072594216,405.,0.;                     373P    197
110,202.072594216,405.,0.,202.072594216,390.,0.;                     375P    198
110,202.072594216,390.,0.,202.072594216,100.,0.;                     377P    199
110,202.072594216,100.,0.,202.072594216,85.,0.;                      379P    200
110,-101.036297108,390.,-175.,-101.036297108,100.,-175.;             381P    201
110,-101.036297108,100.,-175.,-101.036297108,85.,-175.;              383P    202
110,-101.036297108,0.,-175.,-101.036297108,85.,-175.;                385P    203
110,202.072594216,85.,0.,202.072594216,0.,0.;                        387P    204
110,202.072594216,2040.,0.,202.072594216,2330.,0.;                   389P    205
110,202.072594216,2345.,0.,202.072594216,2330.,0.;                   391P    206
110,202.072594216,2345.,0.,202.072594216,2515.,0.;                   393P    207
110,202.072594216,2515.,0.,202.072594216,2530.,0.;                   395P    208
110,202.072594216,2820.,0.,202.072594216,2530.,0.;                   397P    209
110,202.072594216,2850.,0.,202.072594216,2835.,0.;                   399P    210
110,202.072594216,2835.,0.,202.072594216,2820.,0.;                   401P    211
110,202.072594216,2850.,0.,202.072594216,3140.,0.;                   403P    212
110,202.072594216,3140.,0.,202.072594216,3155.,0.;                   405P    213
110,202.072594216,3155.,0.,202.072594216,3325.,0.;                   407P    214
110,202.072594216,3325.,0.,202.072594216,3340.,0.;                   409P    215
110,202.072594216,3340.,0.,202.072594216,3630.,0.;                   411P    216
110,-101.036297108,3965.,-175.,-101.036297108,4050.,-175.;           413P    217
116,0.,4180.138399975,0.,;                                           415P    218
402,208,1,3,5,7,9,11,13,15,17,19,21,23,25,27,29,31,33,35,37,39,      417P    219
41,43,45,47,49,51,53,55,57,59,61,63,65,67,69,71,73,75,77,79,81,      417P    220
83,85,87,89,91,93,95,97,99,101,103,105,107,109,111,113,115,117,      417P    221
119,121,123,125,127,129,131,133,135,137,139,141,143,145,147,         417P    222
149,151,153,155,157,159,161,163,165,167,169,171,173,175,177,         417P    223
179,181,183,185,187,189,191,193,195,197,199,201,203,205,207,         417P    224
209,211,213,215,217,219,221,223,225,227,229,231,233,235,237,         417P    225
239,241,243,245,247,249,251,253,255,257,259,261,263,265,267,         417P    226
269,271,273,275,277,279,281,283,285,287,289,291,293,295,297,         417P    227
299,301,303,305,307,309,311,313,315,317,319,321,323,325,327,         417P    228
329,331,333,335,337,339,341,343,345,347,349,351,353,355,357,         417P    229
359,361,363,365,367,369,371,373,375,377,379,381,383,385,387,         417P    230
389,391,393,395,397,399,401,403,405,407,409,411,413,415;             417P    231
314,89.4117647058823,89.4117647058823,89.4117647058823,;             419P    232
S      1G      5D    420P    232                                        T      1
